<svg width="36" height="36" viewBox="0 0 36 36" fill="none" xmlns="http://www.w3.org/2000/svg">
<g opacity="0.4">
<path d="M24.4992 33H11.4993C6.41534 33 3 29.4343 3 24.1264V11.8751C3 6.56717 6.41534 3 11.4993 3H24.5007C29.5847 3 33 6.56717 33 11.8751V24.1264C33 29.4343 29.5847 33 24.4992 33Z" fill="#94A3B8"/>
<path d="M24.4992 33H11.4993C6.41534 33 3 29.4343 3 24.1264V11.8751C3 6.56717 6.41534 3 11.4993 3H24.5007C29.5847 3 33 6.56717 33 11.8751V24.1264C33 29.4343 29.5847 33 24.4992 33Z" fill="white" fill-opacity="0.2"/>
</g>
<path fill-rule="evenodd" clip-rule="evenodd" d="M16.8674 13.0124C16.8674 15.0674 15.1949 16.7399 13.1399 16.7399C11.0834 16.7399 9.4124 15.0674 9.4124 13.0124C9.4124 10.9574 11.0834 9.28345 13.1399 9.28345C15.1949 9.28345 16.8674 10.9574 16.8674 13.0124ZM29.1005 21.1313C29.45 21.4703 29.7005 21.8573 29.8655 22.2698C30.365 23.5178 30.1055 25.0178 29.5715 26.2538C28.9385 27.7253 27.7265 28.8368 26.1995 29.3228C25.5215 29.5403 24.8105 29.6333 24.101 29.6333H11.5295C10.2785 29.6333 9.1715 29.3423 8.264 28.7963C7.6955 28.4543 7.595 27.6668 8.0165 27.1538C8.7215 26.2988 9.4175 25.4408 10.1195 24.5753C11.4575 22.9193 12.359 22.4393 13.361 22.8608C13.7675 23.0348 14.1755 23.2973 14.5955 23.5733C15.7145 24.3143 17.27 25.3313 19.319 24.2273C20.7196 23.4615 21.5326 22.151 22.2402 21.0103L22.2545 20.9873C22.3021 20.911 22.3493 20.8347 22.3964 20.7586C22.637 20.3698 22.874 19.9869 23.1425 19.6343C23.4755 19.1978 24.7115 17.8328 26.309 18.8048C27.3275 19.4168 28.184 20.2448 29.1005 21.1313Z" fill="#94A3B8"/>
<path fill-rule="evenodd" clip-rule="evenodd" d="M16.8674 13.0124C16.8674 15.0674 15.1949 16.7399 13.1399 16.7399C11.0834 16.7399 9.4124 15.0674 9.4124 13.0124C9.4124 10.9574 11.0834 9.28345 13.1399 9.28345C15.1949 9.28345 16.8674 10.9574 16.8674 13.0124ZM29.1005 21.1313C29.45 21.4703 29.7005 21.8573 29.8655 22.2698C30.365 23.5178 30.1055 25.0178 29.5715 26.2538C28.9385 27.7253 27.7265 28.8368 26.1995 29.3228C25.5215 29.5403 24.8105 29.6333 24.101 29.6333H11.5295C10.2785 29.6333 9.1715 29.3423 8.264 28.7963C7.6955 28.4543 7.595 27.6668 8.0165 27.1538C8.7215 26.2988 9.4175 25.4408 10.1195 24.5753C11.4575 22.9193 12.359 22.4393 13.361 22.8608C13.7675 23.0348 14.1755 23.2973 14.5955 23.5733C15.7145 24.3143 17.27 25.3313 19.319 24.2273C20.7196 23.4615 21.5326 22.151 22.2402 21.0103L22.2545 20.9873C22.3021 20.911 22.3493 20.8347 22.3964 20.7586C22.637 20.3698 22.874 19.9869 23.1425 19.6343C23.4755 19.1978 24.7115 17.8328 26.309 18.8048C27.3275 19.4168 28.184 20.2448 29.1005 21.1313Z" fill="white" fill-opacity="0.2"/>
</svg>
