<svg width="43" height="46" viewBox="0 0 43 46" fill="none" xmlns="http://www.w3.org/2000/svg">
<g clip-path="url(#clip0_0_374)">
<path d="M21.9567 11.092C18.3344 14.0391 33.105 14.8432 25.5415 26.5261C25.5415 26.5261 28.9106 22.1629 29.9281 18.3859C30.9457 14.6088 29.9868 12.5221 28.8731 11.3663C27.7594 10.2104 23.0117 10.2339 21.9567 11.092Z" fill="white"/>
<path d="M4.83203 23.3048L16.5595 24.3903C14.6932 22.02 12.9723 17.0472 12.9067 15.3146C12.834 13.4178 13.8796 11.4554 16.3555 10.7802C18.8313 10.105 21.4525 10.2011 21.4525 10.2011C21.4525 10.2011 24.0737 10.105 26.5496 10.7802C29.0254 11.4554 30.0711 13.4178 29.9984 15.3146C29.9257 17.2113 27.8672 23 25.8087 24.9952H38.5443C38.5443 24.9952 37.0016 16.8901 30.7627 15.8632C30.7627 15.8632 31.5997 14.1587 29.7335 11.0709C27.8672 7.98316 25.7126 0.48999 21.4525 0.48999C17.1925 0.48999 15.0378 7.98316 13.1716 11.0709C11.3053 14.1587 12.1423 15.8632 12.1423 15.8632C7.72051 16.5923 5.65966 20.8735 4.83203 23.3048Z" fill="white" fill-opacity="0.3"/>
<path d="M17.3636 8.32782C19.462 5.8215 22.6623 5.54484 24.6505 5.21192C25.4711 5.07359 23.8276 1.59897 21.8558 1.24729C19.4081 0.811203 17.162 4.73363 13.8445 11.3687C13.8445 11.3687 15.9147 9.78848 18.0998 9.15779C21.9824 8.0371 25.5391 8.95382 25.5391 8.95382C25.5391 8.95382 22.5709 7.60805 19.6941 7.7581C18.1678 7.83781 17.3636 8.32782 17.3636 8.32782Z" fill="white"/>
<path d="M6.03491 22.9203C6.03491 22.9203 6.72186 18.1679 11.8189 16.7659C11.8189 16.7659 12.4777 19.1948 13.5656 21.1736C13.5656 21.1736 11.9057 19.9451 10.9608 17.8842C10.9585 17.8819 7.66672 19.0541 6.03491 22.9203Z" fill="white"/>
<path d="M36.8703 22.9203C36.8703 22.9203 36.1833 18.1679 31.0863 16.7659C31.0863 16.7659 30.4275 19.1948 29.3396 21.1736C29.3396 21.1736 30.9995 19.9451 31.9444 17.8842C31.9467 17.8819 35.2385 19.0541 36.8703 22.9203Z" fill="white"/>
<path d="M15.8749 12.3604C14.1095 13.0731 12.1026 16.3883 17.903 24.1253C17.903 24.1253 17.073 21.8605 16.8526 20.6624C16.8526 20.6624 17.7811 22.2965 18.754 22.9905C18.754 22.9905 16.7401 20.0012 16.5267 17.8278C16.5267 17.8278 16.1868 18.3483 16.2665 18.904C16.2665 18.904 14.9395 17.5371 14.9137 15.5747C14.8855 13.3099 15.8749 12.3604 15.8749 12.3604Z" fill="white" fill-opacity="0.3"/>
<path d="M41.2052 26.7231C41.2052 25.6399 40.326 24.7607 39.2429 24.7607H3.65965C2.57647 24.7607 1.69727 25.6399 1.69727 26.7231V43.9509H26.1181L41.2052 42.5465V26.7231Z" fill="white" fill-opacity="0.4"/>
<path d="M42.905 43.7164H-0.000244141V44.1596C-0.000244141 44.9051 0.604649 45.51 1.35022 45.51H41.5545C42.3001 45.51 42.905 44.9051 42.905 44.1596V43.7164Z" fill="white" fill-opacity="0.3"/>
<path d="M21.728 38.9131C20.3799 38.9131 19.0435 38.5497 18.2698 38.0105L19.0318 36.299C19.7586 36.7796 20.7902 37.1078 21.7397 37.1078C22.701 37.1078 23.0761 36.8382 23.0761 36.4396C23.0761 35.1384 18.4104 36.088 18.4104 33.0401C18.4104 31.5747 19.6062 30.379 22.0445 30.379C23.1113 30.379 24.2132 30.6252 25.0221 31.0941L24.307 32.8173C23.5216 32.3953 22.7479 32.1843 22.0328 32.1843C21.0598 32.1843 20.7081 32.5125 20.7081 32.9228C20.7081 34.1772 25.362 33.2393 25.362 36.2638C25.362 37.694 24.1663 38.9131 21.728 38.9131Z" fill="white"/>
</g>
<defs>
<clipPath id="clip0_0_374">
<rect width="42.9052" height="45.02" fill="white" transform="translate(0 0.48999)"/>
</clipPath>
</defs>
</svg>
