<svg width="172" height="146" viewBox="0 0 172 146" fill="none" xmlns="http://www.w3.org/2000/svg">
<path d="M87.9629 118.746C115.321 118.746 137.555 96.5856 137.555 69.3185C137.555 42.0515 115.321 19.8906 87.9629 19.8906C60.503 19.8906 38.3711 41.9494 38.3711 69.3185C38.3711 96.5856 60.503 118.746 87.9629 118.746Z" fill="#EAEEF9"/>
<path d="M56.758 55.8086H116.705C118.949 55.8086 120.97 57.7107 120.97 60.0604V97.7669C120.97 100.004 119.062 102.018 116.705 102.018H56.758C54.5128 102.018 52.4922 100.116 52.4922 97.7669V60.0604C52.4922 57.7107 54.5128 55.8086 56.758 55.8086Z" fill="url(#paint0_linear_339_1035)"/>
<path d="M145.647 56.9636C147.184 55.5339 147.287 53.185 145.853 51.6532C144.418 50.1213 142.061 50.0193 140.524 51.4489C138.988 52.8787 138.885 55.2275 140.319 56.7593C141.651 58.1891 144.111 58.3934 145.647 56.9636Z" fill="#EAEEF9"/>
<path d="M145.85 40.1122C146.465 39.4993 146.568 38.4781 145.953 37.8654C145.338 37.2526 144.314 37.1505 143.699 37.7632C143.084 38.376 142.981 39.3973 143.596 40.01C144.211 40.7249 145.237 40.7248 145.85 40.1122Z" fill="#EAEEF9"/>
<path d="M105.587 16.9292C105.996 16.5207 106.099 15.8058 105.689 15.3974C105.279 14.9888 104.562 14.8868 104.152 15.2952C103.742 15.7037 103.64 16.4186 104.05 16.827C104.46 17.2356 105.177 17.3376 105.587 16.9292Z" fill="#EAEEF9"/>
<g filter="url(#filter0_d_339_1035)">
<path d="M142.748 35.8891L127.818 62.4066C127.256 63.3017 126.134 63.6374 125.347 63.078L99.7522 48.1968C98.8542 47.6374 98.5182 46.5185 99.0792 45.7352L118.724 11.9449C119.286 11.0497 120.409 10.7141 121.194 11.2735L139.717 22.0148L142.748 35.8891Z" fill="#F2F6FA"/>
</g>
<path d="M139.716 22.0156L135.45 29.1765C134.888 30.2954 135.225 31.4143 136.236 32.0856L142.634 35.778" fill="#D5DAE6"/>
<path d="M122.093 28.9556C122.541 28.8438 122.991 28.8438 123.328 28.8438C123.776 28.8438 124.226 28.8438 124.674 28.8438C125.124 28.9556 125.685 29.0674 126.134 29.1793C126.695 29.4031 127.145 29.6269 127.593 29.8507C128.267 30.1864 128.828 30.6339 129.277 31.1933C129.727 31.6409 130.064 32.2003 130.287 32.8716C130.512 33.4311 130.512 34.1025 130.512 34.662C130.4 35.3333 130.175 36.0047 129.839 36.5641C129.502 37.1235 129.165 37.571 128.716 38.0185C128.267 38.3542 127.93 38.578 127.369 38.8018C126.92 39.0255 126.471 39.1374 126.022 39.1374L124.787 39.2493C124.45 39.2493 124.114 39.3612 123.664 39.4732C123.328 39.5851 123.103 39.6968 122.878 39.9206L121.643 41.4871L119.623 40.3682L120.521 38.3542C120.633 38.0185 120.97 37.683 121.195 37.4591C121.532 37.2353 121.868 37.1234 122.205 37.0115C122.654 36.8996 122.991 36.8996 123.44 36.7877C123.889 36.7877 124.338 36.6759 124.787 36.5641C125.236 36.4522 125.572 36.3402 126.022 36.1164C126.471 35.8926 126.695 35.5569 126.92 35.1094C127.032 34.8856 127.145 34.5499 127.256 34.2143C127.256 33.8786 127.256 33.6549 127.145 33.4312C127.032 33.0955 126.92 32.8717 126.695 32.6479C126.471 32.4242 126.247 32.2003 125.91 31.9765C125.572 31.7528 125.124 31.529 124.674 31.4171C124.338 31.3052 124.001 31.3052 123.664 31.3052C123.328 31.3052 123.103 31.3052 122.878 31.3052C122.766 31.3052 122.541 31.3051 122.43 31.1933C122.205 31.0814 121.98 30.7458 121.98 30.5221L122.093 28.9556ZM116.367 43.725C116.48 43.5011 116.705 43.2772 116.928 43.0535C117.153 42.9416 117.378 42.7179 117.603 42.7179C118.164 42.606 118.725 42.6059 119.174 42.9416C119.399 43.0535 119.623 43.2773 119.847 43.5011C119.96 43.725 120.072 43.9486 120.184 44.1724C120.521 45.2913 119.847 46.2983 118.725 46.6341C118.164 46.7458 117.603 46.6341 117.153 46.4102C116.928 46.2983 116.705 46.0746 116.48 45.8508C116.367 45.627 116.143 45.4032 116.143 45.1794C116.03 44.9555 116.03 44.62 116.143 44.3962C116.143 44.1725 116.255 43.9487 116.367 43.725Z" fill="#CED6E2"/>
<g filter="url(#filter1_d_339_1035)">
<path d="M46.7682 24.3667L63.8316 42.157C64.3929 42.8283 64.3929 43.7234 63.7194 44.2828L46.3192 60.7305C45.6456 61.2899 44.7475 61.2899 44.1862 60.6186L22.4079 37.6814C21.8466 37.0101 21.8466 36.115 22.5202 35.5555L35.2054 23.6953L46.7682 24.3667Z" fill="#F2F6FA"/>
</g>
<path d="M35.0898 23.4727L39.8046 28.3958C40.4782 29.067 41.6008 29.067 42.2744 28.3958L46.6525 24.2559" fill="#D5DAE6"/>
<path d="M36.4375 38.8004C36.4375 38.4646 36.5498 38.129 36.6621 37.7933C36.7744 37.4577 36.8866 37.122 36.9988 36.7863C37.1111 36.4507 37.3356 36.115 37.5602 35.7794C37.7847 35.4436 38.1215 35.108 38.4582 34.7723C38.9072 34.3248 39.3562 33.9891 39.9176 33.7653C40.3667 33.5415 40.9279 33.4297 41.377 33.4297C41.826 33.4297 42.3873 33.5415 42.8364 33.6534C43.2854 33.8772 43.7344 34.2129 44.1834 34.5486C44.5203 34.8842 44.857 35.3317 44.9693 35.7794C45.0815 36.115 45.1938 36.5625 45.3061 37.0101C45.3061 37.3458 45.3061 37.7933 45.3061 38.129C45.1938 38.4646 45.1938 38.8004 45.0815 39.136C45.0815 39.4716 44.9693 39.6954 44.9693 40.0311C44.9693 40.2549 44.9693 40.4787 45.1938 40.7024L46.0918 42.0451L44.7447 43.2759L43.3977 42.0451C43.1731 41.8214 42.9486 41.5976 42.8364 41.2618C42.7241 40.9262 42.7241 40.7024 42.7241 40.3668C42.7241 40.0311 42.8364 39.6954 42.8364 39.3598C42.9486 39.0241 42.9486 38.6885 42.9486 38.3527C42.9486 38.0171 42.9486 37.6815 42.8364 37.3458C42.7241 37.0101 42.4995 36.6744 42.2751 36.3388C42.1628 36.115 41.9382 36.0031 41.7138 35.8913C41.4892 35.7794 41.2647 35.7794 41.0402 35.7794C40.8157 35.7794 40.5911 35.8913 40.3667 36.0031C40.1421 36.115 39.9176 36.2269 39.6931 36.4507C39.4685 36.6744 39.2441 37.0101 39.0195 37.2339C38.9072 37.4577 38.795 37.6814 38.6828 38.0171C38.5705 38.2409 38.5705 38.4646 38.5705 38.5766C38.5705 38.6885 38.4582 38.8004 38.3459 38.9122C38.2337 39.136 37.8969 39.136 37.6724 39.0241L36.4375 38.8004ZM46.7654 46.6325C46.6531 46.5207 46.5409 46.2969 46.4287 46.073C46.3164 45.8493 46.3164 45.6255 46.3164 45.4018C46.3164 44.9542 46.5409 44.5066 46.8777 44.171C46.99 44.0591 47.2144 43.9472 47.439 43.8353C47.6635 43.7234 47.888 43.7234 48.1126 43.7234C48.7861 43.7234 49.4597 44.171 49.6842 44.8423C49.7964 45.0661 49.7964 45.2899 49.7964 45.5136C49.7964 45.7374 49.6842 45.9612 49.6842 46.185C49.5719 46.4088 49.4597 46.5207 49.2351 46.7444C49.1229 46.8563 48.8983 47.0801 48.6739 47.0801C48.2248 47.192 47.7757 47.192 47.439 47.0801C47.1023 46.9682 46.8777 46.8563 46.7654 46.6325Z" fill="#CED6E2"/>
<g filter="url(#filter2_d_339_1035)">
<path d="M91.3346 52.3408L84.7114 75.9494C84.4868 76.7325 83.5887 77.292 82.803 76.9563L59.7897 70.243C59.0039 70.0193 58.4427 69.1241 58.7794 68.3409L67.7602 37.9072C67.9847 37.124 68.8827 36.5645 69.6686 36.9002L86.3953 41.8233L91.3346 52.3408Z" fill="#F2F6FA"/>
</g>
<path d="M86.3957 41.8633L84.2604 48.5352C84.036 49.4303 84.5973 50.4374 85.4953 50.6611L91.4161 52.3286" fill="#D5DAE6"/>
<path d="M73.7102 50.8837C74.0471 50.7718 74.3838 50.6599 74.7206 50.5481C75.0574 50.4362 75.3942 50.3242 75.8432 50.3242C76.2922 50.3242 76.629 50.3242 77.0781 50.3242C77.5271 50.3242 77.9761 50.4362 78.4251 50.5481C78.9864 50.6599 79.5478 50.9956 79.9968 51.3312C80.4458 51.6669 80.7826 52.0026 81.1194 52.4501C81.344 52.8977 81.5684 53.3452 81.6807 53.7928C81.793 54.3522 81.6807 54.9116 81.5684 55.3593C81.4561 55.8068 81.2317 56.2543 80.8949 56.7019C80.6704 57.0376 80.3336 57.3732 79.9968 57.597C79.66 57.8207 79.3233 58.0446 78.9864 58.1565L77.9761 58.4921C77.7517 58.604 77.4148 58.7159 77.1904 58.8278C76.9658 58.9397 76.7412 59.1634 76.7412 59.3872L76.0677 60.8417L74.2715 60.0586L74.6084 58.2684C74.6084 57.9326 74.8328 57.7089 75.0574 57.4851C75.2819 57.2613 75.5064 57.0376 75.8432 56.9257C76.18 56.8138 76.5168 56.7019 76.7412 56.5901C77.0781 56.4782 77.4148 56.3662 77.7517 56.1424C78.0884 56.0305 78.313 55.8068 78.6497 55.583C78.8742 55.3593 79.0987 55.0236 79.211 54.576C79.211 54.4641 79.211 54.2403 79.211 54.0166C79.211 53.7928 79.0987 53.5691 78.9864 53.3452C78.8742 53.1214 78.6497 53.0096 78.4251 52.7858C78.2007 52.6739 77.9761 52.562 77.6394 52.4501C77.3025 52.3383 76.9658 52.3383 76.5168 52.3383C76.2922 52.3383 75.9555 52.3383 75.7309 52.4501C75.5064 52.4501 75.2819 52.562 75.1697 52.562C75.0574 52.562 74.9451 52.6739 74.7206 52.562C74.4961 52.562 74.2715 52.3383 74.2715 52.1145L73.7102 50.8837ZM72.0264 63.7508C72.1386 63.5271 72.1386 63.3033 72.3632 63.1914C72.4754 62.9677 72.6999 62.8558 72.8122 62.7439C73.2612 62.5202 73.7102 62.5202 74.0471 62.632C74.2715 62.7439 74.4961 62.8558 74.6084 62.9677C74.7206 63.0796 74.9451 63.3033 75.0574 63.4152C75.5064 64.1985 75.1697 65.2054 74.3838 65.541C73.9348 65.7649 73.4858 65.7649 73.1489 65.653C72.9245 65.541 72.6999 65.541 72.5876 65.3173C72.3632 65.2054 72.2509 64.9816 72.1386 64.8698C72.0264 64.646 72.0264 64.5341 71.9141 64.3103C72.0264 64.1985 72.0264 63.9746 72.0264 63.7508Z" fill="#CED6E2"/>
<g filter="url(#filter3_d_339_1035)">
<path d="M145.441 92.7295L123.663 104.477C122.989 104.813 121.979 104.589 121.642 103.806L110.753 82.6595C110.416 81.9882 110.641 80.9812 111.426 80.6455L139.716 65.7643C140.39 65.4287 141.4 65.6525 141.737 66.4357L149.595 81.7645L145.441 92.7295Z" fill="#F2F6FA"/>
</g>
<path d="M149.485 81.9883L143.423 85.1211C142.637 85.5687 142.301 86.6876 142.637 87.4708L145.331 92.8414" fill="#D5DAE6"/>
<path d="M134.44 79.082C134.777 79.1939 135 79.4177 135.338 79.5296C135.675 79.6414 135.899 79.8652 136.236 80.2008C136.573 80.5366 136.797 80.7603 137.021 81.096C137.358 81.4316 137.583 81.7673 137.807 82.2149C138.144 82.6624 138.256 83.3337 138.256 83.7813C138.369 84.3407 138.256 84.7883 138.256 85.3478C138.144 85.7953 137.919 86.2428 137.695 86.6905C137.358 87.138 136.909 87.4736 136.46 87.6974C136.123 87.9211 135.562 88.0331 135.113 88.145C134.777 88.2569 134.215 88.2569 133.878 88.145C133.542 88.0331 133.092 88.0331 132.756 87.8093L131.858 87.3617C131.633 87.2499 131.296 87.138 131.071 87.0261C130.848 86.9142 130.51 86.9142 130.398 87.138L128.939 87.6974L128.153 86.0191L129.612 85.0121C129.837 84.7883 130.173 84.7883 130.51 84.7883C130.848 84.7883 131.071 84.7883 131.408 84.9001C131.746 85.0121 131.969 85.2359 132.194 85.3478C132.531 85.4597 132.756 85.6834 133.204 85.7953C133.542 85.9072 133.766 85.9072 134.215 86.0191C134.552 86.0191 134.888 85.9072 135.338 85.6834C135.675 85.4597 136.123 85.124 136.123 84.5645C136.236 84.3407 136.123 84.117 136.123 83.7813C136.011 83.5576 136.011 83.3337 135.786 82.9981C135.675 82.6624 135.45 82.4387 135.225 82.103C135.113 81.9911 134.888 81.7673 134.664 81.6554C134.552 81.5435 134.327 81.4316 134.215 81.3198C134.102 81.2079 133.99 81.2079 133.878 80.9841C133.766 80.8722 133.766 80.5366 133.878 80.4246L134.44 79.082ZM123.999 86.8023C124.224 86.6905 124.337 86.5786 124.673 86.6905C124.897 86.5786 125.122 86.6905 125.235 86.6905C125.683 86.8023 126.02 87.138 126.133 87.4736C126.245 87.6974 126.245 87.9211 126.245 88.145C126.245 88.2569 126.245 88.5925 126.245 88.7044C126.133 89.0401 125.796 89.4877 125.458 89.5996C125.235 89.7114 125.01 89.7114 124.785 89.7114C124.673 89.7114 124.337 89.7114 124.224 89.7114C123.775 89.5996 123.439 89.2638 123.326 88.9282C123.214 88.7044 123.214 88.4806 123.214 88.2569C123.101 88.0331 123.214 87.8093 123.214 87.6974C123.326 87.4736 123.439 87.3617 123.439 87.138C123.55 87.0261 123.887 87.0261 123.999 86.8023Z" fill="#CED6E2"/>
<path d="M122.094 80.0859V98.6594C122.094 101.009 120.073 103.023 117.716 103.023H56.0852C53.7278 103.023 51.707 101.009 51.707 98.6594V78.5195" stroke="#1676EE" stroke-width="3" stroke-linecap="round" stroke-linejoin="round"/>
<path d="M119.735 68.1133H98.6312C96.6105 68.1133 94.5899 68.7847 93.0182 70.1272L87.4053 74.6028C85.8336 75.8336 83.813 76.6168 81.7923 76.6168H57.7687C55.4112 76.6168 53.3906 78.5189 53.3906 80.9805C53.3906 81.2043 53.3906 81.428 53.5029 81.6518L57.881 104.589C58.2178 106.714 60.1261 108.393 62.2591 108.393H113.562C115.807 108.393 117.603 106.826 117.939 104.7L124.114 73.1482C124.45 70.7986 122.879 68.5608 120.41 68.2251C120.185 68.1133 119.96 68.1133 119.735 68.1133Z" fill="white"/>
<g filter="url(#filter4_d_339_1035)">
<path d="M125.571 63.9766H100.425C98.0682 63.9766 95.5983 64.8716 93.8022 66.3262L87.0666 71.8088C85.1581 73.3752 82.8007 74.1585 80.4432 74.1585H51.5926C48.7861 74.1585 46.3164 76.3962 46.3164 79.4172C46.3164 79.6409 46.3164 79.9766 46.4286 80.2005L51.7049 108.061C52.1539 110.634 54.2868 112.648 56.9811 112.648H118.162C120.744 112.648 122.989 110.746 123.439 108.173L130.735 70.0186C131.184 67.2213 129.276 64.4241 126.358 63.9766C126.133 63.9766 125.796 63.9766 125.571 63.9766Z" fill="url(#paint1_linear_339_1035)"/>
</g>
<path d="M77.077 93.2886C78.5364 93.2886 79.7713 92.0579 79.7713 90.6034C79.7713 89.1488 78.5364 87.918 77.077 87.918C75.6177 87.918 74.3828 89.1488 74.3828 90.6034C74.3828 92.0579 75.6177 93.2886 77.077 93.2886Z" fill="#989FB0"/>
<path d="M98.0692 92.8433C99.5282 92.8433 100.763 91.6126 100.763 90.158C100.763 88.7035 99.5282 87.4727 98.0692 87.4727C96.6099 87.4727 95.375 88.7035 95.375 90.158C95.375 91.6126 96.6099 92.8433 98.0692 92.8433Z" fill="#989FB0"/>
<path d="M93.2415 97.3192H91.7821C90.5472 94.8576 87.5163 93.8507 85.1587 95.1934C84.1484 95.6409 83.3626 96.5361 83.0258 97.3192H81.5664C82.8013 94.0745 86.5059 92.3961 89.6492 93.6269C91.333 94.2982 92.5679 95.6409 93.2415 97.3192Z" fill="#989FB0"/>
<path d="M135.787 121.709C134.553 121.709 135.002 121.821 125.459 112.31C116.254 119.136 103.457 112.534 103.457 101.345C103.457 93.8491 109.631 87.6953 117.152 87.6953C128.042 87.6953 134.777 99.8914 128.378 109.177L137.247 118.017C138.706 119.36 137.808 121.709 135.787 121.709ZM117.265 92.0589C112.1 92.0589 107.835 96.1988 107.835 101.457C107.835 106.716 111.989 110.856 117.265 110.856C117.826 110.856 118.388 110.856 118.948 110.744C119.51 110.632 120.071 110.52 120.521 110.296C121.082 110.072 121.53 109.849 121.98 109.625C122.541 109.289 122.99 108.954 123.439 108.506C123.776 108.171 124.225 107.723 124.561 107.387C124.899 106.94 125.236 106.492 125.459 106.045C125.684 105.597 125.909 105.038 126.134 104.478C126.357 103.919 126.47 103.359 126.47 102.8C126.47 102.352 126.582 102.017 126.582 101.569C126.695 96.1988 122.428 92.0589 117.265 92.0589Z" fill="#989FB0"/>
<path d="M70.4531 86.0181L76.5152 82.7734" stroke="#989FB0" stroke-width="1.5" stroke-miterlimit="10"/>
<path d="M103.343 84.4504L97.2812 81.0938" stroke="#989FB0" stroke-width="1.5" stroke-miterlimit="10"/>
<defs>
<filter id="filter0_d_339_1035" x="76.8048" y="0" width="87.9434" height="96.3516" filterUnits="userSpaceOnUse" color-interpolation-filters="sRGB">
<feFlood flood-opacity="0" result="BackgroundImageFix"/>
<feColorMatrix in="SourceAlpha" type="matrix" values="0 0 0 0 0 0 0 0 0 0 0 0 0 0 0 0 0 0 127 0" result="hardAlpha"/>
<feOffset dy="11"/>
<feGaussianBlur stdDeviation="11"/>
<feColorMatrix type="matrix" values="0 0 0 0 0.397708 0 0 0 0 0.47749 0 0 0 0 0.575 0 0 0 0.27 0"/>
<feBlend mode="normal" in2="BackgroundImageFix" result="effect1_dropShadow_339_1035"/>
<feBlend mode="normal" in="SourceGraphic" in2="effect1_dropShadow_339_1035" result="shape"/>
</filter>
<filter id="filter1_d_339_1035" x="0" y="12.6953" width="86.2395" height="81.4417" filterUnits="userSpaceOnUse" color-interpolation-filters="sRGB">
<feFlood flood-opacity="0" result="BackgroundImageFix"/>
<feColorMatrix in="SourceAlpha" type="matrix" values="0 0 0 0 0 0 0 0 0 0 0 0 0 0 0 0 0 0 127 0" result="hardAlpha"/>
<feOffset dy="11"/>
<feGaussianBlur stdDeviation="11"/>
<feColorMatrix type="matrix" values="0 0 0 0 0.397708 0 0 0 0 0.47749 0 0 0 0 0.575 0 0 0 0.27 0"/>
<feBlend mode="normal" in2="BackgroundImageFix" result="effect1_dropShadow_339_1035"/>
<feBlend mode="normal" in="SourceGraphic" in2="effect1_dropShadow_339_1035" result="shape"/>
</filter>
<filter id="filter2_d_339_1035" x="36.6797" y="25.8008" width="76.6549" height="84.2549" filterUnits="userSpaceOnUse" color-interpolation-filters="sRGB">
<feFlood flood-opacity="0" result="BackgroundImageFix"/>
<feColorMatrix in="SourceAlpha" type="matrix" values="0 0 0 0 0 0 0 0 0 0 0 0 0 0 0 0 0 0 127 0" result="hardAlpha"/>
<feOffset dy="11"/>
<feGaussianBlur stdDeviation="11"/>
<feColorMatrix type="matrix" values="0 0 0 0 0.397708 0 0 0 0 0.47749 0 0 0 0 0.575 0 0 0 0.27 0"/>
<feBlend mode="normal" in2="BackgroundImageFix" result="effect1_dropShadow_339_1035"/>
<feBlend mode="normal" in="SourceGraphic" in2="effect1_dropShadow_339_1035" result="shape"/>
</filter>
<filter id="filter3_d_339_1035" x="88.6016" y="54.6133" width="82.9936" height="83.0154" filterUnits="userSpaceOnUse" color-interpolation-filters="sRGB">
<feFlood flood-opacity="0" result="BackgroundImageFix"/>
<feColorMatrix in="SourceAlpha" type="matrix" values="0 0 0 0 0 0 0 0 0 0 0 0 0 0 0 0 0 0 127 0" result="hardAlpha"/>
<feOffset dy="11"/>
<feGaussianBlur stdDeviation="11"/>
<feColorMatrix type="matrix" values="0 0 0 0 0.397708 0 0 0 0 0.47749 0 0 0 0 0.575 0 0 0 0.27 0"/>
<feBlend mode="normal" in2="BackgroundImageFix" result="effect1_dropShadow_339_1035"/>
<feBlend mode="normal" in="SourceGraphic" in2="effect1_dropShadow_339_1035" result="shape"/>
</filter>
<filter id="filter4_d_339_1035" x="24.3164" y="52.9766" width="128.484" height="92.6719" filterUnits="userSpaceOnUse" color-interpolation-filters="sRGB">
<feFlood flood-opacity="0" result="BackgroundImageFix"/>
<feColorMatrix in="SourceAlpha" type="matrix" values="0 0 0 0 0 0 0 0 0 0 0 0 0 0 0 0 0 0 127 0" result="hardAlpha"/>
<feOffset dy="11"/>
<feGaussianBlur stdDeviation="11"/>
<feColorMatrix type="matrix" values="0 0 0 0 0.397708 0 0 0 0 0.47749 0 0 0 0 0.575 0 0 0 0.27 0"/>
<feBlend mode="normal" in2="BackgroundImageFix" result="effect1_dropShadow_339_1035"/>
<feBlend mode="normal" in="SourceGraphic" in2="effect1_dropShadow_339_1035" result="shape"/>
</filter>
<linearGradient id="paint0_linear_339_1035" x1="86.7313" y1="59.2059" x2="86.7313" y2="76.6735" gradientUnits="userSpaceOnUse">
<stop stop-color="#B0BACC"/>
<stop offset="1" stop-color="#969EAE"/>
</linearGradient>
<linearGradient id="paint1_linear_339_1035" x1="88.5311" y1="62.8507" x2="88.5311" y2="113.172" gradientUnits="userSpaceOnUse">
<stop stop-color="#FDFEFF"/>
<stop offset="0.9964" stop-color="#ECF0F5"/>
</linearGradient>
</defs>
</svg>
