<svg width="1049" height="880" viewBox="0 0 1049 880" fill="none" xmlns="http://www.w3.org/2000/svg">
<mask id="mask0_0_1083" style="mask-type:alpha" maskUnits="userSpaceOnUse" x="0" y="0" width="1049" height="880">
<rect width="1048.83" height="879.236" fill="url(#paint0_radial_0_1083)"/>
</mask>
<g mask="url(#mask0_0_1083)">
</g>
<g clip-path="url(#clip0_0_1083)">
<g opacity="0.7">
<path opacity="0.11" d="M274.666 660.005C275.321 659.58 275.507 658.705 275.082 658.05C274.657 657.396 273.782 657.209 273.127 657.634C272.472 658.059 272.286 658.934 272.711 659.589C273.136 660.244 274.011 660.43 274.666 660.005Z" fill="white"/>
<path d="M282.742 664.024C283.233 663.706 283.372 663.05 283.054 662.559C282.735 662.068 282.079 661.928 281.588 662.247C281.097 662.565 280.957 663.221 281.276 663.712C281.594 664.203 282.251 664.343 282.742 664.024Z" fill="white"/>
<path d="M294.225 638.894C294.716 638.575 294.855 637.919 294.537 637.428C294.218 636.937 293.562 636.797 293.071 637.116C292.58 637.434 292.441 638.091 292.759 638.582C293.078 639.072 293.734 639.212 294.225 638.894Z" fill="white"/>
<path d="M243.089 670.391C243.58 670.072 243.719 669.416 243.401 668.925C243.082 668.434 242.426 668.295 241.935 668.613C241.444 668.932 241.304 669.588 241.623 670.079C241.942 670.57 242.598 670.709 243.089 670.391Z" fill="white"/>
<path opacity="0.11" d="M222.984 703.648C223.639 703.223 223.825 702.347 223.4 701.693C222.976 701.038 222.1 700.852 221.446 701.277C220.791 701.701 220.605 702.577 221.029 703.231C221.454 703.886 222.33 704.072 222.984 703.648Z" fill="white"/>
<path d="M203.271 697.915C203.598 697.703 203.691 697.266 203.479 696.939C203.266 696.612 202.829 696.519 202.502 696.731C202.175 696.943 202.082 697.38 202.294 697.708C202.506 698.035 202.944 698.128 203.271 697.915Z" fill="white"/>
<path d="M287.878 684.268C288.206 684.056 288.299 683.618 288.086 683.291C287.874 682.964 287.437 682.871 287.11 683.083C286.783 683.296 286.69 683.733 286.902 684.06C287.114 684.387 287.551 684.48 287.878 684.268Z" fill="white"/>
<path d="M417.056 600.442C417.383 600.23 417.476 599.793 417.264 599.466C417.052 599.139 416.614 599.046 416.287 599.258C415.96 599.47 415.867 599.907 416.079 600.235C416.292 600.562 416.729 600.655 417.056 600.442Z" fill="white"/>
<path d="M460.872 526.531C461.2 526.319 461.293 525.882 461.08 525.555C460.868 525.228 460.431 525.135 460.104 525.347C459.777 525.559 459.684 525.996 459.896 526.323C460.108 526.651 460.545 526.744 460.872 526.531Z" fill="white"/>
<path d="M512.057 554.788C512.384 554.576 512.477 554.139 512.265 553.812C512.052 553.485 511.615 553.392 511.288 553.604C510.961 553.816 510.868 554.253 511.08 554.581C511.293 554.908 511.73 555.001 512.057 554.788Z" fill="white"/>
<path d="M80.9523 797.503C81.2794 797.291 81.3724 796.853 81.1602 796.526C80.9479 796.199 80.5106 796.106 80.1836 796.318C79.8565 796.531 79.7634 796.968 79.9757 797.295C80.188 797.622 80.6252 797.715 80.9523 797.503Z" fill="white"/>
<path opacity="0.11" d="M51.3053 771.272C51.6324 771.06 51.7255 770.622 51.5132 770.295C51.3009 769.968 50.8637 769.875 50.5366 770.087C50.2095 770.3 50.1164 770.737 50.3287 771.064C50.541 771.391 50.9782 771.484 51.3053 771.272Z" fill="white"/>
<path opacity="0.11" d="M34.6742 801.434C35.0013 801.222 35.0944 800.785 34.8821 800.458C34.6698 800.131 34.2326 800.038 33.9055 800.25C33.5784 800.462 33.4853 800.899 33.6976 801.227C33.9099 801.554 34.3471 801.647 34.6742 801.434Z" fill="white"/>
<path opacity="0.11" d="M77.2974 824.297C77.6245 824.085 77.7176 823.648 77.5053 823.321C77.293 822.994 76.8558 822.901 76.5287 823.113C76.2016 823.325 76.1085 823.762 76.3208 824.09C76.5331 824.417 76.9703 824.51 77.2974 824.297Z" fill="white"/>
<path opacity="0.11" d="M202.931 709.079C203.258 708.867 203.351 708.43 203.139 708.103C202.926 707.775 202.489 707.682 202.162 707.895C201.835 708.107 201.742 708.544 201.954 708.871C202.166 709.198 202.604 709.291 202.931 709.079Z" fill="white"/>
<path opacity="0.11" d="M300.546 706.369C300.873 706.156 300.966 705.719 300.754 705.392C300.542 705.065 300.105 704.972 299.778 705.184C299.451 705.396 299.357 705.833 299.57 706.161C299.782 706.488 300.219 706.581 300.546 706.369Z" fill="white"/>
<path opacity="0.11" d="M410.459 626.614C410.786 626.402 410.879 625.965 410.666 625.638C410.454 625.31 410.017 625.217 409.69 625.43C409.363 625.642 409.27 626.079 409.482 626.406C409.694 626.733 410.132 626.826 410.459 626.614Z" fill="white"/>
<path opacity="0.3" d="M98.5992 765C98.9263 764.788 99.0194 764.35 98.8072 764.023C98.5949 763.696 98.1576 763.603 97.8305 763.815C97.5034 764.028 97.4104 764.465 97.6227 764.792C97.8349 765.119 98.2721 765.212 98.5992 765Z" fill="white"/>
<path d="M214.114 644.562C214.441 644.35 214.534 643.913 214.322 643.586C214.109 643.259 213.672 643.166 213.345 643.378C213.018 643.59 212.925 644.027 213.137 644.354C213.349 644.682 213.787 644.775 214.114 644.562Z" fill="white"/>
<path d="M304.595 584.162C304.922 583.95 305.015 583.513 304.803 583.186C304.591 582.859 304.153 582.765 303.826 582.978C303.499 583.19 303.406 583.627 303.618 583.954C303.831 584.281 304.268 584.375 304.595 584.162Z" fill="white"/>
<path d="M209.2 725.223C209.527 725.011 209.62 724.574 209.407 724.247C209.195 723.92 208.758 723.826 208.431 724.039C208.104 724.251 208.011 724.688 208.223 725.015C208.435 725.342 208.872 725.435 209.2 725.223Z" fill="white"/>
<path opacity="0.3" d="M167.722 752.142C168.049 751.93 168.142 751.493 167.93 751.166C167.718 750.839 167.281 750.746 166.953 750.958C166.626 751.17 166.533 751.607 166.746 751.935C166.958 752.262 167.395 752.355 167.722 752.142Z" fill="white"/>
<path opacity="0.11" d="M95.301 746.932C95.6281 746.72 95.7212 746.283 95.5089 745.956C95.2967 745.629 94.8594 745.535 94.5323 745.748C94.2052 745.96 94.1122 746.397 94.3244 746.724C94.5367 747.051 94.9739 747.145 95.301 746.932Z" fill="white"/>
<path opacity="0.3" d="M234.016 651.861C234.343 651.649 234.436 651.212 234.223 650.885C234.011 650.558 233.574 650.465 233.247 650.677C232.92 650.889 232.827 651.326 233.039 651.654C233.251 651.981 233.689 652.074 234.016 651.861Z" fill="white"/>
<path opacity="0.3" d="M226.583 729.945C226.91 729.733 227.003 729.295 226.791 728.968C226.578 728.641 226.141 728.548 225.814 728.76C225.487 728.973 225.394 729.41 225.606 729.737C225.818 730.064 226.256 730.157 226.583 729.945Z" fill="white"/>
<path opacity="0.3" d="M158.729 782.397C159.056 782.184 159.149 781.747 158.937 781.42C158.725 781.093 158.287 781 157.96 781.212C157.633 781.424 157.54 781.862 157.752 782.189C157.965 782.516 158.402 782.609 158.729 782.397Z" fill="white"/>
<path opacity="0.3" d="M115.786 753.85C116.113 753.638 116.206 753.201 115.994 752.874C115.782 752.547 115.345 752.454 115.018 752.666C114.691 752.878 114.597 753.315 114.81 753.643C115.022 753.97 115.459 754.063 115.786 753.85Z" fill="white"/>
<path opacity="0.3" d="M483.181 512.899C483.508 512.687 483.601 512.25 483.388 511.922C483.176 511.595 482.739 511.502 482.412 511.715C482.085 511.927 481.992 512.364 482.204 512.691C482.416 513.018 482.853 513.111 483.181 512.899Z" fill="white"/>
<path opacity="0.11" d="M372.017 550.511C372.344 550.299 372.437 549.862 372.224 549.534C372.012 549.207 371.575 549.114 371.248 549.327C370.921 549.539 370.828 549.976 371.04 550.303C371.252 550.63 371.689 550.723 372.017 550.511Z" fill="white"/>
<path opacity="0.11" d="M483.717 548.756C484.044 548.544 484.137 548.107 483.925 547.78C483.713 547.453 483.275 547.359 482.948 547.572C482.621 547.784 482.528 548.221 482.74 548.548C482.953 548.875 483.39 548.968 483.717 548.756Z" fill="white"/>
<path opacity="0.3" d="M337.266 651.378C337.921 650.953 338.108 650.077 337.683 649.423C337.258 648.768 336.383 648.582 335.728 649.007C335.073 649.431 334.887 650.307 335.312 650.961C335.737 651.616 336.612 651.802 337.266 651.378Z" fill="white"/>
<path opacity="0.11" d="M360.694 610.914C361.349 610.489 361.535 609.614 361.11 608.959C360.685 608.305 359.81 608.118 359.155 608.543C358.501 608.968 358.314 609.843 358.739 610.498C359.164 611.153 360.039 611.339 360.694 610.914Z" fill="white"/>
<path d="M346.941 590.368C347.432 590.05 347.572 589.394 347.253 588.903C346.934 588.412 346.278 588.272 345.787 588.591C345.296 588.909 345.157 589.565 345.475 590.056C345.794 590.547 346.45 590.687 346.941 590.368Z" fill="white"/>
<path d="M346.434 679.116C346.925 678.797 347.065 678.141 346.746 677.65C346.428 677.159 345.771 677.02 345.28 677.338C344.79 677.657 344.65 678.313 344.968 678.804C345.287 679.295 345.943 679.434 346.434 679.116Z" fill="white"/>
<path d="M550.842 563.304C551.333 562.985 551.472 562.329 551.154 561.838C550.835 561.347 550.179 561.207 549.688 561.526C549.197 561.845 549.057 562.501 549.376 562.992C549.694 563.483 550.351 563.622 550.842 563.304Z" fill="white"/>
<path d="M159.749 802.787C160.239 802.468 160.379 801.812 160.061 801.321C159.742 800.83 159.086 800.691 158.595 801.009C158.104 801.328 157.964 801.984 158.283 802.475C158.601 802.966 159.258 803.106 159.749 802.787Z" fill="white"/>
<path d="M72.1044 840.3C72.5953 839.981 72.735 839.325 72.4164 838.834C72.0978 838.343 71.4416 838.204 70.9506 838.522C70.4597 838.841 70.32 839.497 70.6386 839.988C70.9572 840.479 71.6134 840.619 72.1044 840.3Z" fill="white"/>
<path d="M46.6492 823.136C47.1401 822.817 47.2798 822.161 46.9612 821.67C46.6427 821.179 45.9864 821.04 45.4955 821.358C45.0046 821.677 44.8649 822.333 45.1835 822.824C45.5021 823.315 46.1583 823.455 46.6492 823.136Z" fill="white"/>
<path d="M326.193 620.676C326.684 620.357 326.824 619.701 326.505 619.21C326.187 618.719 325.53 618.579 325.039 618.898C324.549 619.216 324.409 619.873 324.728 620.364C325.046 620.854 325.702 620.994 326.193 620.676Z" fill="white"/>
<path d="M251.545 731.43C252.036 731.111 252.176 730.455 251.857 729.964C251.539 729.473 250.883 729.333 250.392 729.652C249.901 729.97 249.761 730.627 250.08 731.118C250.398 731.609 251.054 731.748 251.545 731.43Z" fill="white"/>
<path d="M417.399 660.009C417.89 659.691 418.029 659.035 417.711 658.544C417.392 658.053 416.736 657.913 416.245 658.232C415.754 658.55 415.614 659.207 415.933 659.697C416.252 660.188 416.908 660.328 417.399 660.009Z" fill="white"/>
<path d="M548.266 517.817C548.757 517.498 548.897 516.842 548.578 516.351C548.26 515.86 547.604 515.721 547.113 516.039C546.622 516.358 546.482 517.014 546.801 517.505C547.119 517.996 547.775 518.135 548.266 517.817Z" fill="white"/>
<path d="M541.34 475.999C541.831 475.681 541.971 475.024 541.652 474.534C541.334 474.043 540.678 473.903 540.187 474.222C539.696 474.54 539.556 475.196 539.875 475.687C540.193 476.178 540.849 476.318 541.34 475.999Z" fill="white"/>
<path opacity="0.3" d="M396.212 559.236C396.867 558.811 397.053 557.936 396.629 557.281C396.204 556.626 395.328 556.44 394.674 556.865C394.019 557.29 393.833 558.165 394.258 558.82C394.682 559.475 395.558 559.661 396.212 559.236Z" fill="white"/>
<path d="M368.906 517.168C369.561 516.743 369.747 515.868 369.322 515.213C368.897 514.558 368.022 514.372 367.367 514.797C366.712 515.222 366.526 516.097 366.951 516.752C367.376 517.406 368.251 517.593 368.906 517.168Z" fill="white"/>
<path d="M435.186 552.469C435.677 552.15 435.817 551.494 435.498 551.003C435.18 550.512 434.523 550.372 434.033 550.691C433.542 551.009 433.402 551.666 433.721 552.156C434.039 552.647 434.695 552.787 435.186 552.469Z" fill="white"/>
<path opacity="0.3" d="M448.929 510.711C449.583 510.286 449.77 509.41 449.345 508.756C448.92 508.101 448.045 507.915 447.39 508.34C446.735 508.764 446.549 509.64 446.974 510.294C447.399 510.949 448.274 511.135 448.929 510.711Z" fill="white"/>
<path opacity="0.3" d="M534.891 514.712C535.546 514.287 535.732 513.412 535.307 512.757C534.882 512.102 534.007 511.916 533.352 512.341C532.697 512.766 532.511 513.641 532.936 514.296C533.361 514.951 534.236 515.137 534.891 514.712Z" fill="white"/>
<path opacity="0.3" d="M466.331 560.885C466.986 560.46 467.172 559.585 466.747 558.931C466.322 558.276 465.447 558.089 464.792 558.514C464.138 558.939 463.951 559.814 464.376 560.469C464.801 561.124 465.676 561.31 466.331 560.885Z" fill="white"/>
<path opacity="0.3" d="M132.756 791.675C133.41 791.25 133.597 790.375 133.172 789.72C132.747 789.065 131.872 788.879 131.217 789.304C130.562 789.729 130.376 790.604 130.801 791.258C131.226 791.913 132.101 792.1 132.756 791.675Z" fill="white"/>
<path opacity="0.3" d="M63.6055 790.234C64.2602 789.809 64.4465 788.934 64.0216 788.279C63.5967 787.625 62.7215 787.438 62.0668 787.863C61.412 788.288 61.2257 789.163 61.6506 789.818C62.0755 790.473 62.9507 790.659 63.6055 790.234Z" fill="white"/>
<path opacity="0.11" d="M499.06 512.702C499.715 512.277 499.901 511.402 499.476 510.747C499.051 510.092 498.176 509.906 497.521 510.331C496.867 510.756 496.68 511.631 497.105 512.286C497.53 512.94 498.405 513.127 499.06 512.702Z" fill="white"/>
<path opacity="0.3" d="M135.265 715.102C135.92 714.677 136.106 713.802 135.681 713.147C135.256 712.493 134.381 712.306 133.726 712.731C133.072 713.156 132.885 714.031 133.31 714.686C133.735 715.341 134.61 715.527 135.265 715.102Z" fill="white"/>
<path opacity="0.11" d="M111.577 713.634C112.231 713.209 112.418 712.334 111.993 711.679C111.568 711.024 110.693 710.838 110.038 711.263C109.383 711.688 109.197 712.563 109.622 713.218C110.047 713.872 110.922 714.059 111.577 713.634Z" fill="white"/>
<path opacity="0.3" d="M131.449 754.631C132.104 754.206 132.29 753.331 131.865 752.676C131.441 752.021 130.565 751.835 129.911 752.26C129.256 752.685 129.07 753.56 129.494 754.215C129.919 754.87 130.795 755.056 131.449 754.631Z" fill="white"/>
<path d="M168.092 730.007C168.583 729.689 168.723 729.032 168.404 728.541C168.086 728.05 167.429 727.911 166.938 728.229C166.447 728.548 166.308 729.204 166.626 729.695C166.945 730.186 167.601 730.326 168.092 730.007Z" fill="white"/>
<path opacity="0.11" d="M362.149 346.08C362.804 345.656 362.99 344.78 362.565 344.126C362.141 343.471 361.265 343.285 360.611 343.709C359.956 344.134 359.77 345.01 360.194 345.664C360.619 346.319 361.495 346.505 362.149 346.08Z" fill="white"/>
<path d="M370.227 350.101C370.718 349.782 370.858 349.126 370.539 348.635C370.22 348.144 369.564 348.004 369.073 348.323C368.582 348.642 368.443 349.298 368.761 349.789C369.08 350.28 369.736 350.419 370.227 350.101Z" fill="white"/>
<path d="M381.71 324.969C382.2 324.65 382.34 323.994 382.022 323.503C381.703 323.012 381.047 322.872 380.556 323.191C380.065 323.51 379.925 324.166 380.244 324.657C380.562 325.148 381.219 325.287 381.71 324.969Z" fill="white"/>
<path d="M330.572 356.467C331.063 356.148 331.202 355.492 330.884 355.001C330.565 354.51 329.909 354.37 329.418 354.689C328.927 355.007 328.787 355.664 329.106 356.155C329.425 356.645 330.081 356.785 330.572 356.467Z" fill="white"/>
<path opacity="0.11" d="M310.468 389.722C311.123 389.297 311.309 388.422 310.884 387.767C310.459 387.113 309.584 386.926 308.929 387.351C308.275 387.776 308.088 388.651 308.513 389.306C308.938 389.961 309.813 390.147 310.468 389.722Z" fill="white"/>
<path d="M290.754 383.992C291.081 383.78 291.174 383.343 290.962 383.016C290.75 382.689 290.312 382.596 289.985 382.808C289.658 383.02 289.565 383.457 289.777 383.784C289.99 384.111 290.427 384.205 290.754 383.992Z" fill="white"/>
<path d="M375.362 370.344C375.689 370.132 375.782 369.695 375.57 369.368C375.358 369.041 374.92 368.948 374.593 369.16C374.266 369.372 374.173 369.809 374.385 370.136C374.598 370.464 375.035 370.557 375.362 370.344Z" fill="white"/>
<path d="M504.539 286.519C504.866 286.307 504.959 285.87 504.747 285.543C504.535 285.216 504.097 285.123 503.77 285.335C503.443 285.547 503.35 285.984 503.562 286.311C503.775 286.639 504.212 286.732 504.539 286.519Z" fill="white"/>
<path d="M548.356 212.608C548.684 212.395 548.777 211.958 548.564 211.631C548.352 211.304 547.915 211.211 547.588 211.423C547.261 211.636 547.168 212.073 547.38 212.4C547.592 212.727 548.029 212.82 548.356 212.608Z" fill="white"/>
<path d="M599.54 240.867C599.867 240.655 599.96 240.218 599.748 239.891C599.535 239.564 599.098 239.471 598.771 239.683C598.444 239.895 598.351 240.332 598.563 240.659C598.775 240.986 599.213 241.08 599.54 240.867Z" fill="white"/>
<path d="M168.437 483.578C168.764 483.366 168.857 482.929 168.645 482.602C168.433 482.275 167.995 482.181 167.668 482.394C167.341 482.606 167.248 483.043 167.46 483.37C167.673 483.697 168.11 483.791 168.437 483.578Z" fill="white"/>
<path opacity="0.11" d="M138.789 457.348C139.116 457.135 139.209 456.698 138.997 456.371C138.785 456.044 138.347 455.951 138.02 456.163C137.693 456.376 137.6 456.813 137.812 457.14C138.025 457.467 138.462 457.56 138.789 457.348Z" fill="white"/>
<path opacity="0.11" d="M122.157 487.51C122.484 487.298 122.577 486.861 122.365 486.534C122.152 486.207 121.715 486.114 121.388 486.326C121.061 486.538 120.968 486.975 121.18 487.302C121.392 487.63 121.83 487.723 122.157 487.51Z" fill="white"/>
<path opacity="0.11" d="M164.781 510.374C165.108 510.162 165.201 509.724 164.989 509.397C164.777 509.07 164.339 508.977 164.012 509.189C163.685 509.402 163.592 509.839 163.804 510.166C164.017 510.493 164.454 510.586 164.781 510.374Z" fill="white"/>
<path opacity="0.11" d="M290.415 395.155C290.743 394.942 290.836 394.505 290.623 394.178C290.411 393.851 289.974 393.758 289.647 393.97C289.32 394.182 289.227 394.62 289.439 394.947C289.651 395.274 290.088 395.367 290.415 395.155Z" fill="white"/>
<path opacity="0.11" d="M388.029 392.444C388.356 392.232 388.449 391.795 388.237 391.468C388.024 391.141 387.587 391.048 387.26 391.26C386.933 391.472 386.84 391.909 387.052 392.237C387.264 392.564 387.702 392.657 388.029 392.444Z" fill="white"/>
<path opacity="0.11" d="M497.943 312.69C498.27 312.477 498.363 312.04 498.151 311.713C497.939 311.386 497.501 311.293 497.174 311.505C496.847 311.717 496.754 312.155 496.966 312.482C497.179 312.809 497.616 312.902 497.943 312.69Z" fill="white"/>
<path opacity="0.3" d="M186.082 451.076C186.409 450.863 186.503 450.426 186.29 450.099C186.078 449.772 185.641 449.679 185.314 449.891C184.987 450.103 184.894 450.541 185.106 450.868C185.318 451.195 185.755 451.288 186.082 451.076Z" fill="white"/>
<path d="M301.598 330.638C301.925 330.425 302.018 329.988 301.806 329.661C301.594 329.334 301.157 329.241 300.83 329.453C300.502 329.665 300.409 330.103 300.622 330.43C300.834 330.757 301.271 330.85 301.598 330.638Z" fill="white"/>
<path d="M392.079 270.237C392.406 270.025 392.499 269.587 392.287 269.26C392.074 268.933 391.637 268.84 391.31 269.052C390.983 269.265 390.89 269.702 391.102 270.029C391.314 270.356 391.752 270.449 392.079 270.237Z" fill="white"/>
<path d="M296.684 411.299C297.011 411.087 297.104 410.65 296.892 410.323C296.679 409.996 296.242 409.903 295.915 410.115C295.588 410.327 295.495 410.764 295.707 411.091C295.919 411.419 296.357 411.512 296.684 411.299Z" fill="white"/>
<path opacity="0.3" d="M255.206 438.217C255.533 438.005 255.626 437.567 255.414 437.24C255.201 436.913 254.764 436.82 254.437 437.032C254.11 437.245 254.017 437.682 254.229 438.009C254.441 438.336 254.879 438.429 255.206 438.217Z" fill="white"/>
<path opacity="0.11" d="M182.784 433.009C183.111 432.797 183.204 432.36 182.992 432.033C182.78 431.705 182.343 431.612 182.015 431.825C181.688 432.037 181.595 432.474 181.808 432.801C182.02 433.128 182.457 433.221 182.784 433.009Z" fill="white"/>
<path opacity="0.3" d="M321.499 337.936C321.826 337.724 321.919 337.286 321.707 336.959C321.495 336.632 321.058 336.539 320.731 336.751C320.403 336.964 320.31 337.401 320.523 337.728C320.735 338.055 321.172 338.148 321.499 337.936Z" fill="white"/>
<path opacity="0.3" d="M314.067 416.02C314.394 415.808 314.488 415.371 314.275 415.044C314.063 414.716 313.626 414.623 313.299 414.836C312.972 415.048 312.879 415.485 313.091 415.812C313.303 416.139 313.74 416.232 314.067 416.02Z" fill="white"/>
<path opacity="0.3" d="M246.213 468.473C246.54 468.26 246.634 467.823 246.421 467.496C246.209 467.169 245.772 467.076 245.445 467.288C245.118 467.501 245.024 467.938 245.237 468.265C245.449 468.592 245.886 468.685 246.213 468.473Z" fill="white"/>
<path opacity="0.3" d="M203.27 439.927C203.597 439.715 203.69 439.277 203.478 438.95C203.265 438.623 202.828 438.53 202.501 438.742C202.174 438.955 202.081 439.392 202.293 439.719C202.505 440.046 202.943 440.139 203.27 439.927Z" fill="white"/>
<path opacity="0.3" d="M570.665 198.974C570.992 198.762 571.085 198.325 570.872 197.998C570.66 197.671 570.223 197.578 569.896 197.79C569.569 198.002 569.476 198.439 569.688 198.767C569.9 199.094 570.337 199.187 570.665 198.974Z" fill="white"/>
<path opacity="0.11" d="M459.501 236.588C459.828 236.376 459.921 235.939 459.709 235.612C459.496 235.285 459.059 235.192 458.732 235.404C458.405 235.616 458.312 236.053 458.524 236.381C458.736 236.708 459.174 236.801 459.501 236.588Z" fill="white"/>
<path opacity="0.11" d="M571.2 234.833C571.527 234.621 571.62 234.184 571.408 233.856C571.195 233.529 570.758 233.436 570.431 233.649C570.104 233.861 570.011 234.298 570.223 234.625C570.435 234.952 570.873 235.045 571.2 234.833Z" fill="white"/>
<path opacity="0.3" d="M424.751 337.454C425.406 337.029 425.592 336.154 425.167 335.499C424.742 334.844 423.867 334.658 423.212 335.083C422.558 335.508 422.371 336.383 422.796 337.038C423.221 337.692 424.096 337.879 424.751 337.454Z" fill="white"/>
<path opacity="0.11" d="M448.177 296.99C448.831 296.565 449.018 295.69 448.593 295.035C448.168 294.381 447.293 294.194 446.638 294.619C445.983 295.044 445.797 295.919 446.222 296.574C446.647 297.229 447.522 297.415 448.177 296.99Z" fill="white"/>
<path d="M434.425 276.444C434.916 276.125 435.056 275.469 434.737 274.978C434.419 274.487 433.762 274.347 433.271 274.666C432.78 274.984 432.641 275.641 432.959 276.132C433.278 276.622 433.934 276.762 434.425 276.444Z" fill="white"/>
<path d="M433.918 365.191C434.409 364.872 434.548 364.216 434.23 363.725C433.911 363.234 433.255 363.094 432.764 363.413C432.273 363.731 432.134 364.388 432.452 364.879C432.771 365.37 433.427 365.509 433.918 365.191Z" fill="white"/>
<path d="M638.325 249.38C638.816 249.061 638.956 248.405 638.637 247.914C638.318 247.423 637.662 247.283 637.171 247.602C636.68 247.92 636.541 248.577 636.859 249.068C637.178 249.559 637.834 249.698 638.325 249.38Z" fill="white"/>
<path d="M247.232 488.863C247.723 488.544 247.863 487.888 247.544 487.397C247.226 486.906 246.569 486.767 246.079 487.085C245.588 487.404 245.448 488.06 245.766 488.551C246.085 489.042 246.741 489.182 247.232 488.863Z" fill="white"/>
<path d="M159.589 526.375C160.08 526.057 160.22 525.4 159.901 524.909C159.583 524.419 158.926 524.279 158.435 524.597C157.944 524.916 157.805 525.572 158.123 526.063C158.442 526.554 159.098 526.694 159.589 526.375Z" fill="white"/>
<path d="M134.133 509.211C134.624 508.893 134.763 508.237 134.445 507.746C134.126 507.255 133.47 507.115 132.979 507.434C132.488 507.752 132.348 508.408 132.667 508.899C132.986 509.39 133.642 509.53 134.133 509.211Z" fill="white"/>
<path d="M413.677 306.752C414.168 306.433 414.308 305.777 413.989 305.286C413.671 304.795 413.014 304.656 412.523 304.974C412.032 305.293 411.893 305.949 412.211 306.44C412.53 306.931 413.186 307.071 413.677 306.752Z" fill="white"/>
<path d="M339.029 417.504C339.52 417.186 339.66 416.53 339.341 416.039C339.022 415.548 338.366 415.408 337.875 415.727C337.384 416.045 337.245 416.701 337.563 417.192C337.882 417.683 338.538 417.823 339.029 417.504Z" fill="white"/>
<path d="M504.882 346.084C505.373 345.766 505.513 345.109 505.194 344.618C504.875 344.128 504.219 343.988 503.728 344.306C503.237 344.625 503.098 345.281 503.416 345.772C503.735 346.263 504.391 346.403 504.882 346.084Z" fill="white"/>
<path d="M635.751 203.892C636.242 203.574 636.382 202.918 636.063 202.427C635.744 201.936 635.088 201.796 634.597 202.115C634.106 202.433 633.967 203.089 634.285 203.58C634.604 204.071 635.26 204.211 635.751 203.892Z" fill="white"/>
<path d="M628.825 162.077C629.316 161.758 629.456 161.102 629.137 160.611C628.819 160.12 628.162 159.98 627.672 160.299C627.181 160.617 627.041 161.274 627.36 161.765C627.678 162.256 628.334 162.395 628.825 162.077Z" fill="white"/>
<path opacity="0.3" d="M483.696 245.311C484.351 244.886 484.537 244.011 484.112 243.356C483.687 242.701 482.812 242.515 482.157 242.94C481.503 243.365 481.316 244.24 481.741 244.894C482.166 245.549 483.041 245.736 483.696 245.311Z" fill="white"/>
<path d="M456.389 203.244C457.044 202.819 457.23 201.944 456.805 201.289C456.38 200.634 455.505 200.448 454.85 200.873C454.196 201.298 454.009 202.173 454.434 202.828C454.859 203.482 455.734 203.669 456.389 203.244Z" fill="white"/>
<path d="M522.67 238.545C523.161 238.226 523.3 237.57 522.982 237.079C522.663 236.588 522.007 236.448 521.516 236.767C521.025 237.085 520.885 237.742 521.204 238.233C521.523 238.724 522.179 238.863 522.67 238.545Z" fill="white"/>
<path opacity="0.3" d="M536.413 196.786C537.068 196.361 537.254 195.486 536.829 194.831C536.404 194.176 535.529 193.99 534.874 194.415C534.219 194.84 534.033 195.715 534.458 196.37C534.883 197.024 535.758 197.211 536.413 196.786Z" fill="white"/>
<path opacity="0.3" d="M622.374 200.788C623.028 200.363 623.215 199.488 622.79 198.833C622.365 198.178 621.49 197.992 620.835 198.417C620.18 198.842 619.994 199.717 620.419 200.372C620.844 201.027 621.719 201.213 622.374 200.788Z" fill="white"/>
<path opacity="0.3" d="M553.815 246.961C554.47 246.536 554.656 245.661 554.231 245.006C553.806 244.352 552.931 244.165 552.276 244.59C551.621 245.015 551.435 245.89 551.86 246.545C552.285 247.2 553.16 247.386 553.815 246.961Z" fill="white"/>
<path opacity="0.3" d="M220.239 477.751C220.894 477.326 221.081 476.45 220.656 475.796C220.231 475.141 219.356 474.955 218.701 475.38C218.046 475.804 217.86 476.68 218.285 477.334C218.71 477.989 219.585 478.176 220.239 477.751Z" fill="white"/>
<path opacity="0.3" d="M151.089 476.311C151.743 475.886 151.93 475.011 151.505 474.356C151.08 473.702 150.205 473.515 149.55 473.94C148.895 474.365 148.709 475.24 149.134 475.895C149.559 476.55 150.434 476.736 151.089 476.311Z" fill="white"/>
<path opacity="0.11" d="M586.544 198.778C587.199 198.353 587.385 197.478 586.96 196.823C586.535 196.168 585.66 195.982 585.005 196.407C584.35 196.832 584.164 197.707 584.589 198.362C585.014 199.016 585.889 199.203 586.544 198.778Z" fill="white"/>
<path opacity="0.3" d="M222.748 401.179C223.403 400.754 223.589 399.879 223.164 399.224C222.74 398.569 221.864 398.383 221.21 398.808C220.555 399.233 220.368 400.108 220.793 400.763C221.218 401.418 222.094 401.604 222.748 401.179Z" fill="white"/>
<path opacity="0.11" d="M199.059 399.709C199.714 399.284 199.9 398.409 199.475 397.754C199.05 397.099 198.175 396.913 197.52 397.338C196.866 397.762 196.679 398.638 197.104 399.292C197.529 399.947 198.404 400.134 199.059 399.709Z" fill="white"/>
<path opacity="0.3" d="M218.934 440.707C219.588 440.282 219.775 439.407 219.35 438.752C218.925 438.097 218.05 437.911 217.395 438.336C216.74 438.761 216.554 439.636 216.979 440.291C217.404 440.945 218.279 441.132 218.934 440.707Z" fill="white"/>
<path d="M255.577 416.082C256.068 415.764 256.207 415.107 255.889 414.617C255.57 414.126 254.914 413.986 254.423 414.304C253.932 414.623 253.792 415.279 254.111 415.77C254.43 416.261 255.086 416.401 255.577 416.082Z" fill="white"/>
<path opacity="0.11" d="M733.97 236.724C734.625 236.299 734.811 235.424 734.386 234.769C733.962 234.115 733.086 233.928 732.432 234.353C731.777 234.778 731.591 235.653 732.015 236.308C732.44 236.963 733.316 237.149 733.97 236.724Z" fill="white"/>
<path d="M742.047 240.743C742.538 240.425 742.678 239.769 742.359 239.278C742.041 238.787 741.384 238.647 740.893 238.966C740.402 239.284 740.263 239.94 740.581 240.431C740.9 240.922 741.556 241.062 742.047 240.743Z" fill="white"/>
<path d="M753.53 215.613C754.021 215.294 754.161 214.638 753.842 214.147C753.523 213.656 752.867 213.516 752.376 213.835C751.885 214.153 751.746 214.81 752.064 215.3C752.383 215.791 753.039 215.931 753.53 215.613Z" fill="white"/>
<path d="M702.392 247.109C702.883 246.791 703.023 246.134 702.704 245.643C702.386 245.152 701.73 245.013 701.239 245.331C700.748 245.65 700.608 246.306 700.927 246.797C701.245 247.288 701.901 247.428 702.392 247.109Z" fill="white"/>
<path opacity="0.11" d="M682.288 280.365C682.943 279.94 683.129 279.065 682.704 278.41C682.279 277.755 681.404 277.569 680.749 277.994C680.094 278.419 679.908 279.294 680.333 279.949C680.758 280.603 681.633 280.79 682.288 280.365Z" fill="white"/>
<path d="M662.574 274.635C662.901 274.423 662.994 273.986 662.782 273.659C662.57 273.331 662.132 273.238 661.805 273.451C661.478 273.663 661.385 274.1 661.597 274.427C661.81 274.754 662.247 274.847 662.574 274.635Z" fill="white"/>
<path d="M747.182 260.988C747.509 260.775 747.602 260.338 747.39 260.011C747.177 259.684 746.74 259.591 746.413 259.803C746.086 260.015 745.993 260.453 746.205 260.78C746.417 261.107 746.855 261.2 747.182 260.988Z" fill="white"/>
<path d="M876.36 177.162C876.687 176.95 876.78 176.512 876.567 176.185C876.355 175.858 875.918 175.765 875.591 175.977C875.264 176.19 875.171 176.627 875.383 176.954C875.595 177.281 876.032 177.374 876.36 177.162Z" fill="white"/>
<path d="M920.177 103.25C920.504 103.038 920.597 102.601 920.385 102.274C920.173 101.947 919.735 101.854 919.408 102.066C919.081 102.278 918.988 102.715 919.201 103.042C919.413 103.37 919.85 103.463 920.177 103.25Z" fill="white"/>
<path d="M971.36 131.508C971.687 131.296 971.78 130.859 971.568 130.532C971.356 130.204 970.919 130.111 970.592 130.324C970.264 130.536 970.171 130.973 970.384 131.3C970.596 131.627 971.033 131.72 971.36 131.508Z" fill="white"/>
<path d="M540.256 374.221C540.583 374.009 540.676 373.572 540.464 373.245C540.251 372.918 539.814 372.825 539.487 373.037C539.16 373.249 539.067 373.686 539.279 374.013C539.491 374.34 539.929 374.434 540.256 374.221Z" fill="white"/>
<path opacity="0.11" d="M510.609 347.992C510.937 347.779 511.03 347.342 510.817 347.015C510.605 346.688 510.168 346.595 509.841 346.807C509.514 347.019 509.421 347.457 509.633 347.784C509.845 348.111 510.282 348.204 510.609 347.992Z" fill="white"/>
<path opacity="0.11" d="M493.978 378.154C494.305 377.942 494.398 377.504 494.186 377.177C493.974 376.85 493.536 376.757 493.209 376.969C492.882 377.182 492.789 377.619 493.001 377.946C493.214 378.273 493.651 378.366 493.978 378.154Z" fill="white"/>
<path opacity="0.11" d="M536.601 401.017C536.928 400.805 537.021 400.367 536.809 400.04C536.597 399.713 536.159 399.62 535.832 399.832C535.505 400.045 535.412 400.482 535.624 400.809C535.837 401.136 536.274 401.229 536.601 401.017Z" fill="white"/>
<path opacity="0.11" d="M662.235 285.798C662.562 285.586 662.655 285.148 662.443 284.821C662.23 284.494 661.793 284.401 661.466 284.613C661.139 284.826 661.046 285.263 661.258 285.59C661.471 285.917 661.908 286.01 662.235 285.798Z" fill="white"/>
<path opacity="0.11" d="M759.84 283.087C760.167 282.875 760.26 282.438 760.048 282.111C759.835 281.784 759.398 281.691 759.071 281.903C758.744 282.115 758.651 282.552 758.863 282.879C759.075 283.206 759.513 283.3 759.84 283.087Z" fill="white"/>
<path opacity="0.11" d="M869.764 203.333C870.091 203.121 870.184 202.684 869.971 202.356C869.759 202.029 869.322 201.936 868.995 202.149C868.668 202.361 868.575 202.798 868.787 203.125C868.999 203.452 869.436 203.545 869.764 203.333Z" fill="white"/>
<path opacity="0.3" d="M557.903 341.718C558.23 341.506 558.323 341.069 558.111 340.742C557.899 340.415 557.461 340.322 557.134 340.534C556.807 340.746 556.714 341.183 556.926 341.51C557.139 341.838 557.576 341.931 557.903 341.718Z" fill="white"/>
<path d="M673.417 221.282C673.744 221.07 673.837 220.633 673.625 220.305C673.413 219.978 672.976 219.885 672.649 220.098C672.321 220.31 672.228 220.747 672.441 221.074C672.653 221.401 673.09 221.494 673.417 221.282Z" fill="white"/>
<path d="M763.899 160.881C764.226 160.668 764.319 160.231 764.107 159.904C763.895 159.577 763.458 159.484 763.13 159.696C762.803 159.909 762.71 160.346 762.923 160.673C763.135 161 763.572 161.093 763.899 160.881Z" fill="white"/>
<path d="M668.503 301.944C668.83 301.732 668.923 301.294 668.71 300.967C668.498 300.64 668.061 300.547 667.734 300.759C667.407 300.972 667.314 301.409 667.526 301.736C667.738 302.063 668.176 302.156 668.503 301.944Z" fill="white"/>
<path opacity="0.3" d="M627.026 328.861C627.353 328.648 627.446 328.211 627.234 327.884C627.021 327.557 626.584 327.464 626.257 327.676C625.93 327.888 625.837 328.326 626.049 328.653C626.262 328.98 626.699 329.073 627.026 328.861Z" fill="white"/>
<path opacity="0.11" d="M554.605 323.652C554.932 323.44 555.025 323.002 554.813 322.675C554.601 322.348 554.163 322.255 553.836 322.467C553.509 322.68 553.416 323.117 553.628 323.444C553.841 323.771 554.278 323.864 554.605 323.652Z" fill="white"/>
<path opacity="0.3" d="M693.32 228.58C693.647 228.367 693.74 227.93 693.527 227.603C693.315 227.276 692.878 227.183 692.551 227.395C692.224 227.607 692.131 228.045 692.343 228.372C692.555 228.699 692.993 228.792 693.32 228.58Z" fill="white"/>
<path opacity="0.3" d="M685.888 306.664C686.215 306.452 686.308 306.014 686.096 305.687C685.883 305.36 685.446 305.267 685.119 305.479C684.792 305.692 684.699 306.129 684.911 306.456C685.123 306.783 685.561 306.876 685.888 306.664Z" fill="white"/>
<path opacity="0.3" d="M618.033 359.116C618.36 358.904 618.453 358.467 618.241 358.139C618.028 357.812 617.591 357.719 617.264 357.932C616.937 358.144 616.844 358.581 617.056 358.908C617.268 359.235 617.706 359.328 618.033 359.116Z" fill="white"/>
<path opacity="0.3" d="M575.09 330.57C575.417 330.358 575.51 329.92 575.297 329.593C575.085 329.266 574.648 329.173 574.321 329.385C573.994 329.598 573.901 330.035 574.113 330.362C574.325 330.689 574.763 330.782 575.09 330.57Z" fill="white"/>
<path opacity="0.3" d="M942.484 89.6187C942.811 89.4065 942.904 88.9692 942.692 88.6421C942.479 88.3151 942.042 88.222 941.715 88.4342C941.388 88.6465 941.295 89.0838 941.507 89.4109C941.719 89.7379 942.157 89.831 942.484 89.6187Z" fill="white"/>
<path opacity="0.11" d="M831.321 127.231C831.648 127.019 831.741 126.582 831.529 126.255C831.317 125.928 830.88 125.835 830.553 126.047C830.225 126.259 830.132 126.696 830.345 127.023C830.557 127.351 830.994 127.444 831.321 127.231Z" fill="white"/>
<path opacity="0.11" d="M943.02 125.476C943.347 125.264 943.44 124.826 943.228 124.499C943.016 124.172 942.579 124.079 942.252 124.291C941.924 124.504 941.831 124.941 942.044 125.268C942.256 125.595 942.693 125.688 943.02 125.476Z" fill="white"/>
<path opacity="0.3" d="M796.57 228.097C797.225 227.672 797.412 226.797 796.987 226.142C796.562 225.488 795.686 225.301 795.032 225.726C794.377 226.151 794.191 227.026 794.616 227.681C795.04 228.336 795.916 228.522 796.57 228.097Z" fill="white"/>
<path opacity="0.11" d="M819.997 187.634C820.652 187.209 820.838 186.334 820.413 185.679C819.988 185.024 819.113 184.838 818.458 185.263C817.804 185.688 817.617 186.563 818.042 187.218C818.467 187.872 819.342 188.059 819.997 187.634Z" fill="white"/>
<path d="M806.246 167.087C806.737 166.769 806.876 166.112 806.558 165.621C806.239 165.131 805.583 164.991 805.092 165.309C804.601 165.628 804.461 166.284 804.78 166.775C805.099 167.266 805.755 167.406 806.246 167.087Z" fill="white"/>
<path d="M805.738 255.834C806.229 255.516 806.369 254.859 806.05 254.369C805.732 253.878 805.075 253.738 804.584 254.056C804.094 254.375 803.954 255.031 804.272 255.522C804.591 256.013 805.247 256.153 805.738 255.834Z" fill="white"/>
<path d="M1010.15 140.023C1010.64 139.705 1010.78 139.048 1010.46 138.557C1010.14 138.067 1009.48 137.927 1008.99 138.245C1008.5 138.564 1008.36 139.22 1008.68 139.711C1009 140.202 1009.65 140.342 1010.15 140.023Z" fill="white"/>
<path d="M619.053 379.507C619.544 379.188 619.683 378.532 619.365 378.041C619.046 377.55 618.39 377.41 617.899 377.729C617.408 378.047 617.268 378.704 617.587 379.195C617.906 379.685 618.562 379.825 619.053 379.507Z" fill="white"/>
<path d="M531.409 417.019C531.9 416.7 532.04 416.044 531.721 415.553C531.402 415.062 530.746 414.923 530.255 415.241C529.764 415.56 529.625 416.216 529.943 416.707C530.262 417.198 530.918 417.338 531.409 417.019Z" fill="white"/>
<path d="M505.954 399.855C506.445 399.537 506.584 398.88 506.266 398.389C505.947 397.899 505.291 397.759 504.8 398.077C504.309 398.396 504.17 399.052 504.488 399.543C504.807 400.034 505.463 400.174 505.954 399.855Z" fill="white"/>
<path d="M785.498 197.395C785.989 197.076 786.128 196.42 785.81 195.929C785.491 195.438 784.835 195.298 784.344 195.617C783.853 195.935 783.713 196.592 784.032 197.082C784.351 197.573 785.007 197.713 785.498 197.395Z" fill="white"/>
<path d="M710.849 308.148C711.34 307.83 711.48 307.173 711.161 306.682C710.843 306.192 710.186 306.052 709.696 306.37C709.205 306.689 709.065 307.345 709.383 307.836C709.702 308.327 710.358 308.467 710.849 308.148Z" fill="white"/>
<path d="M876.702 236.728C877.193 236.409 877.333 235.753 877.014 235.262C876.696 234.771 876.04 234.631 875.549 234.95C875.058 235.269 874.918 235.925 875.237 236.416C875.555 236.907 876.211 237.046 876.702 236.728Z" fill="white"/>
<path d="M1007.57 94.5359C1008.06 94.2173 1008.2 93.5611 1007.88 93.0702C1007.56 92.5793 1006.91 92.4395 1006.42 92.7581C1005.93 93.0767 1005.79 93.7329 1006.11 94.2238C1006.42 94.7148 1007.08 94.8545 1007.57 94.5359Z" fill="white"/>
<path d="M1000.65 52.7192C1001.14 52.4007 1001.28 51.7444 1000.96 51.2535C1000.64 50.7626 999.983 50.6229 999.492 50.9415C999.001 51.2601 998.862 51.9163 999.18 52.4072C999.499 52.8981 1000.16 53.0378 1000.65 52.7192Z" fill="white"/>
<path opacity="0.3" d="M855.507 135.955C856.162 135.53 856.348 134.655 855.923 134C855.498 133.345 854.623 133.159 853.968 133.584C853.314 134.009 853.127 134.884 853.552 135.539C853.977 136.193 854.852 136.38 855.507 135.955Z" fill="white"/>
<path d="M828.21 93.8876C828.864 93.4627 829.051 92.5874 828.626 91.9327C828.201 91.278 827.326 91.0916 826.671 91.5165C826.016 91.9414 825.83 92.8167 826.255 93.4714C826.68 94.1261 827.555 94.3125 828.21 93.8876Z" fill="white"/>
<path d="M894.49 129.188C894.981 128.87 895.121 128.213 894.802 127.723C894.484 127.232 893.828 127.092 893.337 127.41C892.846 127.729 892.706 128.385 893.025 128.876C893.343 129.367 894 129.507 894.49 129.188Z" fill="white"/>
<path opacity="0.3" d="M908.232 87.43C908.887 87.0051 909.073 86.1299 908.648 85.4752C908.223 84.8205 907.348 84.6341 906.693 85.059C906.039 85.4839 905.852 86.3591 906.277 87.0139C906.702 87.6686 907.577 87.8549 908.232 87.43Z" fill="white"/>
<path opacity="0.3" d="M994.195 91.4315C994.85 91.0066 995.036 90.1314 994.611 89.4767C994.186 88.8219 993.311 88.6356 992.656 89.0605C992.001 89.4854 991.815 90.3606 992.24 91.0153C992.665 91.6701 993.54 91.8564 994.195 91.4315Z" fill="white"/>
<path opacity="0.3" d="M925.635 137.605C926.29 137.18 926.477 136.305 926.052 135.65C925.627 134.995 924.751 134.809 924.097 135.234C923.442 135.659 923.256 136.534 923.681 137.189C924.106 137.844 924.981 138.03 925.635 137.605Z" fill="white"/>
<path opacity="0.3" d="M592.06 368.394C592.715 367.969 592.901 367.094 592.476 366.44C592.051 365.785 591.176 365.598 590.521 366.023C589.866 366.448 589.68 367.324 590.105 367.978C590.53 368.633 591.405 368.819 592.06 368.394Z" fill="white"/>
<path opacity="0.3" d="M522.909 366.955C523.564 366.53 523.75 365.655 523.325 365C522.901 364.345 522.025 364.159 521.371 364.584C520.716 365.009 520.53 365.884 520.954 366.539C521.379 367.193 522.255 367.38 522.909 366.955Z" fill="white"/>
<path opacity="0.11" d="M958.364 89.4215C959.019 88.9966 959.205 88.1214 958.78 87.4667C958.355 86.8119 957.48 86.6256 956.826 87.0505C956.171 87.4754 955.984 88.3506 956.409 89.0053C956.834 89.6601 957.709 89.8464 958.364 89.4215Z" fill="white"/>
<path opacity="0.3" d="M594.569 291.822C595.224 291.397 595.41 290.522 594.985 289.867C594.56 289.212 593.685 289.026 593.03 289.451C592.375 289.876 592.189 290.751 592.614 291.406C593.039 292.06 593.914 292.247 594.569 291.822Z" fill="white"/>
<path opacity="0.11" d="M570.88 290.354C571.535 289.929 571.721 289.053 571.296 288.399C570.871 287.744 569.996 287.558 569.341 287.983C568.686 288.407 568.5 289.283 568.925 289.937C569.35 290.592 570.225 290.779 570.88 290.354Z" fill="white"/>
<path opacity="0.3" d="M590.754 331.349C591.408 330.925 591.595 330.049 591.17 329.395C590.745 328.74 589.87 328.554 589.215 328.978C588.56 329.403 588.374 330.279 588.799 330.933C589.224 331.588 590.099 331.774 590.754 331.349Z" fill="white"/>
<path d="M627.396 306.725C627.887 306.407 628.027 305.75 627.708 305.26C627.39 304.769 626.734 304.629 626.243 304.948C625.752 305.266 625.612 305.922 625.931 306.413C626.249 306.904 626.905 307.044 627.396 306.725Z" fill="white"/>
</g>
</g>
<defs>
<radialGradient id="paint0_radial_0_1083" cx="0" cy="0" r="1" gradientUnits="userSpaceOnUse" gradientTransform="translate(524.414 439.618) rotate(39.9732) scale(684.306 673.798)">
<stop/>
<stop offset="1" stop-opacity="0"/>
</radialGradient>
<clipPath id="clip0_0_1083">
<rect width="1048.83" height="879.236" fill="white"/>
</clipPath>
</defs>
</svg>
